# xmcd
#
# Track frame offsets: 
#        150
#        16975
#        35662
#        55785
#        73317
#        92802
#        116332
#        142007
#        165992
#
# Disc length: 2481 seconds
#
# Revision: 9
# Processed by: cddbd v1.5.2PL0 Copyright (c) Steve Scherf et al.
# Submitted via: ExactAudioCopy v1.3
#
DISCID=7709af09
DTITLE=Ozzy Osbourne - The Ultimate Sin
DYEAR=1986
DGENRE=Heavy Metal
TTITLE0=The Ultimate Sin
TTITLE1=Secret Loser
TTITLE2=Never Know Why
TTITLE3=Thank God For The Bomb
TTITLE4=Never
TTITLE5=Lightning Strikes
TTITLE6=Killer Of Giants
TTITLE7=Fool Like You
TTITLE8=Shot In The Dark
EXTD=YEAR: 1986
EXTT0=
EXTT1=
EXTT2=
EXTT3=
EXTT4=
EXTT5=
EXTT6=
EXTT7=
EXTT8=
PLAYORDER=
